:SAMPLES-PER-SECOND 30
:FULLY-SPECIFIED
:DEGREES
142
root  -0.823927 31.0114 4.10466 151.886 -49.6755 -167.46
RightUpLeg  -21.902 -6.91906 7.63991
RightLeg  82.3343 1.54264 12.4959
RightFoot  -23.521 0.315022 4.43456
RightToes  5.82063e-011 0 -3.6325e-017
Spine  28.4052 2.49758 1.56572
Spine1  2.50953 2.06354 4.1197
HEad  -3.10338 45.5084 -4.69621
LeftShoulder1  0.555103 -0.832016 -4.96892
LeftArm  -32.9821 -3.04011 -41.4411
LeftForeArm  49.4714 -78.4249 -86.0841
LeftHand  -0.0927656 5.03107 30.1917
RightShoulder  1.23158 2.75389 12.7025
RightArm  -38.2008 -11.6817 33.5094
RightForeArm  1.69549 75.2249 54.293
RightHand  -1.63177 0.84827 -29.9219
LeftUpLeg  -22.0196 -8.4623 -0.242388
LeftLeg  89.0431 -0.803222 27.4337
LeftFoot  -19.178 -1.99883 -30.1578
LeftToes  3.99265e-010 -1.33173e-010 6.75004e-011
143
root  -0.90939 31.0044 4.06718 153.517 -49.8606 -167.801
RightUpLeg  -23.5122 -6.67767 8.01117
RightLeg  82.5554 1.31783 10.7329
RightFoot  -22.8528 0.105304 2.58257
RightToes  5.82063e-011 0 -3.6325e-017
Spine  28.9624 2.6764 1.6141
Spine1  0.582131 2.20764 4.837
HEad  -4.07516 45.0654 -6.20462
LeftShoulder1  0.454586 0.178994 -5.94472
LeftArm  -38.558 5.5736 -34.7012
LeftForeArm  51.6534 -78.3896 -88.2552
LeftHand  -0.149168 4.87602 35.183
RightShoulder  1.14636 2.17997 13.254
RightArm  -44.6774 -18.7608 28.9305
RightForeArm  -2.6313 75.1505 54.8222
RightHand  -1.93198 1.53262 -31.8257
LeftUpLeg  -23.2352 -7.9311 0.0754184
LeftLeg  88.9523 -0.725299 25.8765
LeftFoot  -19.9737 -2.13476 -29.2898
LeftToes  3.99265e-010 -1.33173e-010 6.75004e-011
144
root  -0.902062 30.9838 4.04662 156.447 -50.7628 -168.208
RightUpLeg  -26.5637 -5.85075 8.59081
RightLeg  82.6109 1.03903 7.95929
RightFoot  -22.8966 -0.0412578 1.13627
RightToes  5.82063e-011 0 -3.6325e-017
Spine  29.2893 2.39071 1.38716
Spine1  -1.65429 1.93751 4.70649
HEad  -5.96463 45.0506 -7.9054
LeftShoulder1  0.428915 0.801819 -8.36684
LeftArm  -42.3791 14.835 -29.9421
LeftForeArm  22.4219 -76.3657 -59.336
LeftHand  0.138815 5.71969 40.5436
RightShoulder  1.14607 1.7377 15.1201
RightArm  -48.8302 -25.2062 27.7204
RightForeArm  -21.7565 71.1052 40.3848
RightHand  -2.12986 1.74403 -33.9517
LeftUpLeg  -25.4946 -7.20253 0.117969
LeftLeg  88.1201 -0.319336 25.1082
LeftFoot  -22.7045 -2.49025 -26.0582
LeftToes  3.99265e-010 -1.33173e-010 6.75004e-011
145
root  -0.761182 30.9317 4.09245 161.517 -52.5174 -169.483
RightUpLeg  -31.2896 -3.88366 8.43263
RightLeg  82.6339 0.739133 4.85346
RightFoot  -24.1355 -0.0106607 1.34337
RightToes  5.82063e-011 0 -3.6325e-017
Spine  29.6291 1.62437 0.317552
Spine1  -4.53666 1.06257 4.12885
HEad  -8.83368 45.4523 -9.72936
LeftShoulder1  0.449032 0.995912 -10.6434
LeftArm  -45.3651 22.5731 -28.8709
LeftForeArm  -8.23689 -66.7318 -29.5766
LeftHand  0.686959 7.02681 44.676
RightShoulder  1.20559 1.58415 17.1222
RightArm  -50.0968 -28.6558 29.9739
RightForeArm  -38.5932 60.4957 23.5715
RightHand  -2.07673 1.22599 -35.559
LeftUpLeg  -29.4675 -6.35441 -0.461644
LeftLeg  86.8239 0.258635 24.1316
LeftFoot  -26.1967 -2.71667 -21.7952
LeftToes  3.99265e-010 -1.33173e-010 6.75004e-011
146
root  -0.494637 30.9102 4.24225 168.164 -54.7768 -172.212
RightUpLeg  -36.4568 -1.12192 6.93138
RightLeg  82.4255 0.437705 1.62107
RightFoot  -25.8181 0.211894 3.04191
RightToes  5.82063e-011 0 -3.6325e-017
Spine  30.6962 0.594907 -1.11821
Spine1  -7.54717 -0.0951738 3.25775
HEad  -13.3029 45.1778 -12.466
LeftShoulder1  0.621955 0.386914 -12.8398
LeftArm  -48.1484 26.1405 -30.5114
LeftForeArm  -24.4155 -50.0076 -14.9496
LeftHand  1.52658 8.71965 48.6566
RightShoulder  1.33542 1.81604 18.6531
RightArm  -48.6693 -29.0783 34.1869
RightForeArm  -46.7714 44.9978 13.4215
RightHand  -1.92177 0.227969 -38.5847
LeftUpLeg  -34.2025 -5.35865 -1.76802
LeftLeg  85.2164 0.845029 21.888
LeftFoot  -28.7483 -2.641 -18.2176
LeftToes  3.99265e-010 -1.33173e-010 6.75004e-011
147
root  -0.182735 30.9737 4.46031 174.959 -56.7083 -176.526
RightUpLeg  -40.3126 2.03828 4.29737
RightLeg  81.9652 0.0542338 -2.11309
RightFoot  -26.8875 0.485158 4.89945
RightToes  5.82063e-011 0 -3.6325e-017
Spine  32.6461 -0.385029 -1.99465
Spine1  -9.51751 -1.00674 1.48717
HEad  -19.1632 43.4584 -16.4205
LeftShoulder1  1.14244 -1.41587 -16.3549
LeftArm  -49.1005 24.5351 -32.3079
LeftForeArm  -33.202 -32.3178 -8.5253
LeftHand  2.7012 11.0207 51.0667
RightShoulder  1.56359 2.40648 20.1017
RightArm  -44.481 -27.3607 39.4457
RightForeArm  -54.3949 30.8786 8.73484
RightHand  -1.46475 -1.47889 -41.925
LeftUpLeg  -37.5727 -3.6595 -3.89629
LeftLeg  83.1916 1.35273 18.7007
LeftFoot  -30.2389 -2.40611 -15.4644
LeftToes  3.99265e-010 -1.33173e-010 6.75004e-011
148
root  0.0618354 31.0974 4.65318 -179.226 -57.7278 178.262
RightUpLeg  -42.1396 5.38814 1.15623
RightLeg  81.5446 -0.395157 -5.92151
RightFoot  -27.219 0.695229 6.30931
RightToes  5.82063e-011 0 -3.6325e-017
Spine  34.3278 -1.22047 -2.3048
Spine1  -9.64437 -1.60355 -1.27486
HEad  -24.4661 41.2592 -20.1731
LeftShoulder1  1.91278 -3.52961 -20.8138
LeftArm  -44.8575 19.5971 -34.3634
LeftForeArm  -38.2984 -21.3699 -5.95182
LeftHand  3.25135 12.4932 49.0304
RightShoulder  1.83949 3.11321 21.5517
RightArm  -36.3376 -23.2905 45.6698
RightForeArm  -61.5411 21.499 6.55439
RightHand  -0.844206 -3.1105 -41.5132
LeftUpLeg  -38.5812 -0.919935 -6.65171
LeftLeg  80.8944 1.69478 15.4566
LeftFoot  -31.4134 -2.11621 -12.9799
LeftToes  3.99265e-010 -1.33173e-010 6.75004e-011
149
root  0.168548 31.2086 4.7478 -175.376 -58.1942 173.953
RightUpLeg  -42.2946 8.09361 -1.46451
RightLeg  81.2766 -0.737446 -8.52775
RightFoot  -27.577 0.914771 7.7142
RightToes  5.82063e-011 0 -3.6325e-017
Spine  34.5262 -1.91569 -2.47496
Spine1  -8.42316 -2.05491 -3.79594
HEad  -26.719 40.2241 -21.6079
LeftShoulder1  2.44604 -4.66362 -23.76
LeftArm  -35.63 13.7888 -38.7382
LeftForeArm  -40.7123 -19.2286 -5.63062
LeftHand  2.73338 12.2345 43.396
RightShoulder  1.9906 3.52001 22.1278
RightArm  -25.9293 -17.1161 51.8076
RightForeArm  -61.2631 16.4665 6.67527
RightHand  -0.742853 -3.21701 -38.8399
LeftUpLeg  -38.1289 1.88287 -9.008
LeftLeg  79.1128 1.75076 12.7621
LeftFoot  -32.1927 -1.85885 -11.1201
LeftToes  3.99265e-010 -1.33173e-010 6.75004e-011
150
root  0.157273 31.2702 4.72598 -174.465 -58.9747 172.313
RightUpLeg  -41.3244 8.95768 -2.3491
RightLeg  81.1069 -0.877362 -9.44377
RightFoot  -28.1034 1.1285 8.94773
RightToes  5.82063e-011 0 -3.6325e-017
Spine  33.4405 -2.38463 -2.42539
Spine1  -7.07287 -2.37545 -4.8475
HEad  -25.0232 40.5517 -19.9449
LeftShoulder1  2.53112 -4.99661 -23.5431
LeftArm  -27.0055 8.41539 -45.1646
LeftForeArm  -40.3327 -22.0887 -6.68251
LeftHand  1.64303 10.4246 36.1232
RightShoulder  1.93275 3.49833 21.3283
RightArm  -17.5527 -11.2831 55.9922
RightForeArm  -54.7857 16.8471 8.11441
RightHand  -1.01189 -2.24383 -36.4251
LeftUpLeg  -37.3707 2.98081 -9.75705
LeftLeg  78.6792 1.58897 11.246
LeftFoot  -31.9738 -1.76738 -10.7441
LeftToes  3.99265e-010 -1.33173e-010 6.75004e-011
151
root  0.0988531 31.2877 4.59356 -176.858 -60.1642 173.711
RightUpLeg  -39.654 7.6689 -1.17022
RightLeg  81.2241 -0.803609 -8.99976
RightFoot  -27.9559 1.14 9.09292
RightToes  5.82063e-011 0 -3.6325e-017
Spine  32.2037 -2.49457 -2.26964
Spine1  -5.97722 -2.55146 -4.12438
HEad  -21.3999 41.1894 -16.8674
LeftShoulder1  2.49679 -5.56157 -21.1903
LeftArm  -19.2391 4.11629 -50.2612
LeftForeArm  -39.5245 -28.1131 -7.75756
LeftHand  0.569208 7.56322 29.4351
RightShoulder  1.78425 3.31189 19.8049
RightArm  -10.7812 -8.11805 56.9429
RightForeArm  -51.3839 24.9074 7.64683
RightHand  -1.11947 -1.61713 -33.685
LeftUpLeg  -36.4067 1.80986 -8.69612
LeftLeg  79.5715 1.4202 11.3492
LeftFoot  -30.9287 -1.86645 -11.8607
LeftToes  3.99265e-010 -1.33173e-010 6.75004e-011
152
root  0.0368793 31.2653 4.36988 178.186 -60.8869 177.239
RightUpLeg  -37.7073 5.0427 1.17006
RightLeg  81.8293 -0.507144 -7.18817
RightFoot  -26.73 0.914156 8.09357
RightToes  5.82063e-011 0 -3.6325e-017
Spine  31.4641 -2.24074 -2.50656
Spine1  -4.71757 -2.6548 -2.22096
HEad  -19.0105 41.8428 -14.7732
LeftShoulder1  2.45791 -6.22221 -18.7282
LeftArm  -16.9357 1.74067 -50.6108
LeftForeArm  -31.2956 -38.2886 -10.5228
LeftHand  -0.171025 4.6372 25.0046
RightShoulder  1.64784 3.1147 18.4206
RightArm  -15.988 -7.62653 54.02
RightForeArm  -40.7661 37.8287 10.7001
RightHand  -1.10667 -1.31203 -30.98
LeftUpLeg  -34.9181 -0.515501 -6.66715
LeftLeg  81.1134 1.31315 12.9762
LeftFoot  -29.7839 -2.06327 -13.7526
LeftToes  3.99265e-010 -1.33173e-010 6.75004e-011
153
root  -0.0396139 31.2041 4.09314 172.224 -60.4388 -178.352
RightUpLeg  -35.7931 2.00425 3.68556
RightLeg  82.6798 -0.0887675 -3.93668
RightFoot  -24.967 0.636972 6.74642
RightToes  5.82063e-011 0 -3.6325e-017
Spine  31.0292 -1.78384 -3.05743
Spine1  -3.38136 -2.69973 -0.098035
HEad  -18.2617 42.9453 -13.7083
LeftShoulder1  2.15267 -5.7381 -16.5582
LeftArm  -19.8989 1.57709 -47.0121
LeftForeArm  -18.8433 -50.6944 -15.1228
LeftHand  -0.406433 3.41338 23.5084
RightShoulder  1.49266 2.7776 17.1838
RightArm  -22.0156 -8.10173 49.0718
RightForeArm  -31.8782 51.4759 16.2333
RightHand  -1.15532 -0.856197 -29.1628
LeftUpLeg  -33.1545 -2.93265 -4.49139
LeftLeg  82.8952 1.17238 15.8259
LeftFoot  -28.5991 -2.30316 -16.218
LeftToes  3.99265e-010 -1.33173e-010 6.75004e-011
154
root  -0.165532 31.1123 3.79885 166.433 -58.89 -173.768
RightUpLeg  -34.0317 -1.23264 6.17765
RightLeg  83.3754 0.284622 0.0138735
RightFoot  -23.195 0.372766 5.09667
RightToes  5.82063e-011 0 -3.6325e-017
Spine  30.5669 -1.19626 -3.19607
Spine1  -2.69827 -2.46614 1.82176
HEad  -16.9745 44.2303 -12.1747
LeftShoulder1  1.63363 -4.18773 -14.3375
LeftArm  -24.9051 3.55869 -42.3795
LeftForeArm  -11.7492 -59.3893 -20.3794
LeftHand  -0.395022 3.58084 24.901
RightShoulder  1.30361 2.28455 15.8319
RightArm  -27.5724 -9.0844 43.5828
RightForeArm  -27.2151 60.0391 22.0823
RightHand  -1.24012 -0.436688 -28.673
LeftUpLeg  -31.7417 -5.45395 -2.32366
LeftLeg  85.001 0.788563 19.5261
LeftFoot  -26.671 -2.47686 -19.4553
LeftToes  3.99265e-010 -1.33173e-010 6.75004e-011
155
root  -0.355218 30.9922 3.50092 161.346 -56.6103 -169.417
RightUpLeg  -32.4317 -4.73442 8.70224
RightLeg  83.8589 0.558353 3.7687
RightFoot  -21.5036 0.0799919 2.52106
RightToes  5.82063e-011 0 -3.6325e-017
Spine  29.9665 -0.41663 -2.57184
Spine1  -2.75216 -1.76821 3.69931
HEad  -14.4206 45.0982 -10.2143
LeftShoulder1  1.30346 -3.06332 -12.8347
LeftArm  -28.8469 7.72592 -37.7865
LeftForeArm  -12.7616 -61.7551 -22.8281
LeftHand  -0.540669 3.26465 29.0024
RightShoulder  1.15945 1.85309 14.8821
RightArm  -33.0465 -11.5438 38.5351
RightForeArm  -28.1607 62.4132 24.7086
RightHand  -1.43663 0.0543213 -30.1299
LeftUpLeg  -30.9155 -8.28005 -0.150119
LeftLeg  87.451 -0.0294412 23.5636
LeftFoot  -23.6495 -2.33413 -22.6964
LeftToes  3.99265e-010 -1.33173e-010 6.75004e-011
156
root  -0.581945 30.8499 3.21733 157.311 -53.9506 -165.746
RightUpLeg  -30.9262 -8.15843 10.9663
RightLeg  84.2075 0.780177 7.4022
RightFoot  -20.0647 -0.183545 -0.616886
RightToes  5.82063e-011 0 -3.6325e-017
Spine  29.1109 0.439306 -1.49621
Spine1  -2.5861 -0.839493 5.50173
HEad  -12.4591 45.6646 -9.32254
LeftShoulder1  1.27116 -2.86419 -12.9314
LeftArm  -31.238 13.4312 -33.4704
LeftForeArm  -17.4936 -59.3591 -20.9722
LeftHand  -0.565306 3.44505 33.5607
RightShoulder  1.12667 1.63273 15.2015
RightArm  -37.693 -15.4785 34.8956
RightForeArm  -32.3945 60.6637 23.1472
RightHand  -1.7525 0.718788 -32.6728
LeftUpLeg  -30.4416 -10.9672 1.79527
LeftLeg  89.8113 -1.20118 27.4759
LeftFoot  -20.1959 -1.7975 -24.3677
LeftToes  3.99265e-010 -1.33173e-010 6.75004e-011
